<svg xmlns="http://www.w3.org/2000/svg" xmlns:xlink="http://www.w3.org/1999/xlink" style="margin:auto;background:#ffffff;display:block;z-index:1;position:relative" width="1340" height="1022" preserveAspectRatio="xMidYMid" viewBox="0 0 1340 1022">
<g transform="translate(670,511) scale(1,1) translate(-670,-511)"><linearGradient id="lg-0.5164803027197213" x1="0" x2="1" y1="0" y2="0">
  <stop stop-color="#14b8a6" offset="0"></stop>
  <stop stop-color="#0ce1ca" offset="1"></stop>
</linearGradient><path d="M 1155 511 C 1155 640 888 766 766 806 C 644 846 412 857 336 753 C 260 649 266 377 342 273 C 418 169 647 167 769 207 C 891 247 1155 382 1155 511" fill="url(#lg-0.5164803027197213)" opacity="0.4">
  <animate attributeName="d" dur="10s" repeatCount="indefinite" keyTimes="0;0.3333333333333333;0.6666666666666666;1" calcmod="spline" keySplines="0.3 0.1 0.7 0.9;0.3 0.1 0.7 0.9;0.3 0.1 0.7 0.9" begin="-5s" values="M 1155 511 C 1155 640 888 766 766 806 C 644 846 412 857 336 753 C 260 649 266 377 342 273 C 418 169 647 167 769 207 C 891 247 1155 382 1155 511;M 1093 511 C 1093 638 884 759 763 798 C 642 837 375 883 300 780 C 225 677 240 356 315 253 C 390 150 645 178 766 217 C 887 256 1093 384 1093 511;M 1076 511 C 1076 634 900 821 783 859 C 666 897 391 866 319 766 C 247 666 294 389 366 290 C 438 191 649 178 766 216 C 883 254 1076 388 1076 511;M 1155 511 C 1155 640 888 766 766 806 C 644 846 412 857 336 753 C 260 649 266 377 342 273 C 418 169 647 167 769 207 C 891 247 1155 382 1155 511"></animate>
</path><path d="M 1046 511 C 1046 630 895 817 781 854 C 667 891 401 854 331 757 C 261 660 263 363 333 266 C 403 169 667 132 781 169 C 895 206 1046 392 1046 511" fill="url(#lg-0.5164803027197213)" opacity="0.4">
  <animate attributeName="d" dur="10s" repeatCount="indefinite" keyTimes="0;0.3333333333333333;0.6666666666666666;1" calcmod="spline" keySplines="0.3 0.1 0.7 0.9;0.3 0.1 0.7 0.9;0.3 0.1 0.7 0.9" begin="-5s" values="M 1046 511 C 1046 630 895 817 781 854 C 667 891 401 854 331 757 C 261 660 263 363 333 266 C 403 169 667 132 781 169 C 895 206 1046 392 1046 511;M 1140 511 C 1140 644 914 834 788 875 C 662 916 383 883 305 776 C 227 669 241 363 319 256 C 397 149 651 140 777 181 C 903 222 1140 378 1140 511;M 1065 511 C 1065 635 884 768 766 806 C 648 844 404 857 331 757 C 258 657 299 394 372 294 C 445 194 667 120 785 158 C 903 196 1065 387 1065 511;M 1046 511 C 1046 630 895 817 781 854 C 667 891 401 854 331 757 C 261 660 263 363 333 266 C 403 169 667 132 781 169 C 895 206 1046 392 1046 511"></animate>
</path><path d="M 1154 511 C 1154 642 901 800 777 840 C 653 880 440 840 363 734 C 286 628 281 390 358 284 C 435 178 668 92 793 132 C 918 172 1154 380 1154 511" fill="url(#lg-0.5164803027197213)" opacity="0.4">
  <animate attributeName="d" dur="10s" repeatCount="indefinite" keyTimes="0;0.3333333333333333;0.6666666666666666;1" calcmod="spline" keySplines="0.3 0.1 0.7 0.9;0.3 0.1 0.7 0.9;0.3 0.1 0.7 0.9" begin="-5s" values="M 1154 511 C 1154 642 901 800 777 840 C 653 880 440 840 363 734 C 286 628 281 390 358 284 C 435 178 668 92 793 132 C 918 172 1154 380 1154 511;M 1074 511 C 1074 631 885 785 771 822 C 657 859 459 813 388 716 C 317 619 256 359 327 262 C 398 165 652 179 766 216 C 880 253 1074 391 1074 511;M 1138 511 C 1138 637 876 737 756 776 C 636 815 446 830 372 728 C 298 626 234 350 308 248 C 382 146 656 147 776 186 C 896 225 1138 385 1138 511;M 1154 511 C 1154 642 901 800 777 840 C 653 880 440 840 363 734 C 286 628 281 390 358 284 C 435 178 668 92 793 132 C 918 172 1154 380 1154 511"></animate>
</path><path d="M 1058 511 C 1058 624 863 737 755 772 C 647 807 468 798 401 707 C 334 616 334 406 401 315 C 468 224 651 201 759 236 C 867 271 1058 398 1058 511" fill="url(#lg-0.5164803027197213)" opacity="0.4">
  <animate attributeName="d" dur="10s" repeatCount="indefinite" keyTimes="0;0.3333333333333333;0.6666666666666666;1" calcmod="spline" keySplines="0.3 0.1 0.7 0.9;0.3 0.1 0.7 0.9;0.3 0.1 0.7 0.9" begin="-5s" values="M 1058 511 C 1058 624 863 737 755 772 C 647 807 468 798 401 707 C 334 616 334 406 401 315 C 468 224 651 201 759 236 C 867 271 1058 398 1058 511;M 1083 511 C 1083 635 886 773 768 811 C 650 849 417 848 344 748 C 271 648 309 401 382 301 C 455 201 659 144 777 182 C 895 220 1083 387 1083 511;M 1092 511 C 1092 644 901 790 774 831 C 647 872 411 864 333 756 C 255 648 197 332 275 224 C 353 116 648 146 775 187 C 902 228 1092 378 1092 511;M 1058 511 C 1058 624 863 737 755 772 C 647 807 468 798 401 707 C 334 616 334 406 401 315 C 468 224 651 201 759 236 C 867 271 1058 398 1058 511"></animate>
</path></g>
</svg>