<svg xmlns="http://www.w3.org/2000/svg" version="1.0" preserveAspectRatio="xMidYMid meet" viewBox="53.33 53.53 172.67 173.51">
    <g transform="translate(0.000000,280.000000) scale(0.100000,-0.100000)" fill="#009688" stroke="none">
        <path d="M1350 2260 c-294 -28 -535 -145 -667 -323 -183 -246 -200 -642 -41 -949 123 -238 379 -414 651 -448 82 -10 967 -15 967 -5 0 3 -115 142 -255 308 -140 166 -256 306 -257 310 -2 4 26 18 62 30 231 78 339 243 340 517 0 178 -42 293 -144 396 -106 105 -250 158 -457 167 -63 3 -152 2 -199 -3z m207 -279 c124 -18 223 -86 266 -181 25 -56 26 -169 2 -226 -46 -111 -101 -149 -236 -162 -94 -10 -134 -27 -172 -72 -84 -99 -15 -296 175 -506 29 -32 46 -55 38 -51 -111 46 -146 56 -232 65 -155 17 -283 79 -398 192 -110 110 -160 231 -160 390 0 298 213 514 540 549 106 12 108 12 177 2z"/>
    </g>
</svg>